<?xml version="1.0" encoding="UTF-8"?>
<svg id="Layer_1" data-name="Layer 1" xmlns="http://www.w3.org/2000/svg" version="1.1" viewBox="0 0 36 36">
  <defs>
    <style>
      .cls-1 {
        fill: #032e42;
        stroke-width: 0px;
      }
    </style>
  </defs>
  <path class="cls-1" d="M32.6,36H3.4c-1.9,0-3.4-1.5-3.4-3.4V3.4C0,1.5,1.5,0,3.4,0h29.2c1.9,0,3.4,1.5,3.4,3.4v29.2c0,1.9-1.5,3.4-3.4,3.4ZM6.4,24.4v-12.9h0s6.3,6.4,6.3,6.4h0s-6.3,6.4-6.3,6.4h0ZM28.6,8.3H7.4c-1.6,0-2.9,1.3-2.9,2.9v13.7c0,1.6,1.3,2.9,2.9,2.9h21.2c1.6,0,2.9-1.3,2.9-2.9v-13.7c0-1.6-1.3-2.9-2.9-2.9ZM28.2,10.2l-9.6,9.8c-.2.2-.4.3-.7.3s-.5-.1-.7-.3L7.7,10.2h0s20.5,0,20.5,0ZM29.6,11.6v12.9h0s-6.3-6.4-6.3-6.4h0s6.3-6.5,6.3-6.5M21.9,19.4l6.3,6.4h0c0,0-20.5,0-20.5,0h0s6.3-6.5,6.3-6.5l1.9,2c.5.6,1.3.9,2,.9.8,0,1.5-.3,2-.9l1.9-2h0Z"/>
  <rect class="cls-1" x="128.4" y="118.2" width="7.9" height="2.2"/>
  <path class="cls-1" d="M134.7,131.7c-1.2,1.4-5,1.3-5.2-2.3h9c0-1.1,0-1.8-.1-2.4-.5-3-2.6-5-6-5s-6.1,2.3-6.1,6.7,2.8,6.4,6.3,6.4,5.2-1.9,5.7-3.4h-3.6Z"/>
  <path class="cls-1" d="M132.4,124.7c1.5,0,2.7.8,2.8,2.5h-5.6c.2-1.6,1.1-2.5,2.8-2.5Z"/>
  <path class="cls-1" d="M122.5,126c3.2-1.6,3.1-7.7-3.1-7.8h-7.8v16.8h7.3c7.6,0,7.5-7.7,3.6-9.1Z"/>
  <path class="cls-1" d="M114.9,121.6h3.7c3.6,0,3.2,3.4.4,3.4h-4v-3.4Z"/>
  <path class="cls-1" d="M118.7,131.7h-3.8v-3.4h3.8c3.2,0,3.4,3.4,0,3.4Z"/>
</svg>