<?xml version="1.0" encoding="UTF-8"?>
<svg id="Layer_1" data-name="Layer 1" xmlns="http://www.w3.org/2000/svg" version="1.1" viewBox="0 0 800 800">
  <defs>
    <style>
      .cls-1 {
        fill: #d7edff;
        stroke-width: 0px;
      }
    </style>
  </defs>
  <path class="cls-1" d="M400,800h0C179.1,800,0,620.9,0,400H0C0,179.1,179.1,0,400,0h0C620.9,0,800,179.1,800,400h0c0,220.9-179.1,400-400,400ZM519.8,132.5h-239.7c-81.5,0-147.6,66.1-147.6,147.6v239.7c0,81.5,66.1,147.6,147.6,147.6h239.7c81.5,0,147.6-66.1,147.6-147.6v-239.7c0-81.4-66.2-147.6-147.6-147.6ZM620,519.8c0,55.2-44.9,100.2-100.2,100.2h-239.7c-55.2,0-100.2-44.9-100.2-100.2v-239.7c0-55.3,44.8-100.2,100.2-100.2h239.7c55.3,0,100.2,44.8,100.2,100.2v239.7h0ZM403.1,262.2c-78.4-1.7-142.6,62.4-140.9,140.9,1.6,73.4,61.3,133.1,134.7,134.7,78.5,1.7,142.6-62.4,140.9-140.9-1.6-73.4-61.3-133.1-134.7-134.7ZM404.3,490.3c-53.2,2.5-97-41.3-94.5-94.5,2.1-46.4,39.7-83.9,86-86,53.2-2.4,97,41.3,94.5,94.5-2.1,46.4-39.7,83.9-86,86ZM543.6,221.9c-9.1,0-18.1,3.7-24.6,10.2-6.5,6.5-10.2,15.4-10.2,24.6s3.7,18.1,10.2,24.6c6.5,6.5,15.4,10.2,24.6,10.2s18.1-3.7,24.6-10.2c6.5-6.5,10.2-15.5,10.2-24.6s-3.7-18.2-10.2-24.6c-6.5-6.5-15.4-10.2-24.6-10.2Z"/>
</svg>