<?xml version="1.0" encoding="UTF-8"?>
<svg id="Layer_1" data-name="Layer 1" xmlns="http://www.w3.org/2000/svg" version="1.1" viewBox="0 0 36 36">
  <defs>
    <style>
      .cls-1 {
        fill: #d7edff;
        stroke-width: 0px;
      }
    </style>
  </defs>
  <path class="cls-1" d="M18,36h0C8.1,36,0,27.9,0,18h0C0,8.1,8.1,0,18,0h0c9.9,0,18,8.1,18,18h0c0,9.9-8.1,18-18,18ZM29.2,9.6h-7.9v2.2h7.9v-2.2ZM27.6,23.1c-1.2,1.4-5,1.3-5.2-2.3h9c0-1.1,0-1.8-.1-2.4-.5-3-2.6-5-6-5s-6.1,2.3-6.1,6.7,2.8,6.4,6.3,6.4,5.2-1.9,5.7-3.4h-3.6ZM25.3,16.1c1.5,0,2.7.8,2.8,2.5h-5.6c.2-1.6,1.1-2.5,2.8-2.5ZM15.4,17.4c3.2-1.6,3.1-7.7-3.1-7.8h-7.8v16.8h7.3c7.6,0,7.5-7.7,3.6-9.1ZM7.9,12.9h3.7c3.6,0,3.2,3.4.4,3.4h-4v-3.4ZM11.6,23.1h-3.8v-3.4h3.8c3.2,0,3.4,3.4,0,3.4Z"/>
</svg>