<?xml version="1.0" encoding="UTF-8"?>
<svg id="Layer_1" data-name="Layer 1" xmlns="http://www.w3.org/2000/svg" version="1.1" viewBox="0 0 70.7 51">
  <defs>
    <style>
      .cls-1 {
        fill: #fff;
        stroke-width: 0px;
      }
    </style>
  </defs>
  <path class="cls-1" d="M63.2,0H7.6C3.4,0,0,3.4,0,7.6v35.9c0,4.2,3.4,7.6,7.6,7.6h55.6c4.2,0,7.6-3.4,7.6-7.6V7.6c0-4.2-3.4-7.6-7.6-7.6ZM65.7,43.4c0,1.4-1.1,2.6-2.6,2.6H7.6c-1.4,0-2.6-1.1-2.6-2.6V7.6c0-1.4,1.1-2.6,2.6-2.6h55.6c1.4,0,2.6,1.1,2.6,2.6v35.9Z"/>
  <path class="cls-1" d="M68.5,2.2c-1-1-2.6-1-3.5,0l-27.9,28.5c-.5.5-1.1.8-1.7.8s-1.3-.3-1.7-.8L5.8,2.2c-1-1-2.6-1-3.5,0-1,1-1,2.6,0,3.5l27.8,28.4c1.4,1.5,3.3,2.3,5.3,2.3,2,0,3.9-.8,5.3-2.3l27.9-28.5c1-1,.9-2.6,0-3.5h0Z"/>
  <path class="cls-1" d="M26.7,23.7c-1-1-2.6-1-3.5,0L2.2,45.2c-1,1-.9,2.6,0,3.5,1,1,2.6.9,3.5,0l21-21.5c.9-1,.9-2.5,0-3.5h0Z"/>
  <path class="cls-1" d="M68.6,45.2l-21.1-21.6c-1-1-2.6-1-3.5,0-1,1-1,2.6,0,3.5l21.1,21.6c1,1,2.6,1,3.5,0,.5-.5.7-1.1.8-1.8,0-.7-.2-1.3-.7-1.8h0Z"/>
</svg>