<?xml version="1.0" encoding="UTF-8"?>
<svg id="Layer_1" data-name="Layer 1" xmlns="http://www.w3.org/2000/svg" version="1.1" viewBox="0 0 534.9 534.9">
  <defs>
    <style>
      .cls-1 {
        fill: #fff;
        stroke-width: 0px;
      }
    </style>
  </defs>
  <path class="cls-1" d="M387.3,0h-239.7C66.2,0,0,66.2,0,147.6v239.7c0,81.4,66.2,147.6,147.6,147.6h239.7c81.4,0,147.6-66.2,147.6-147.6v-239.7c0-81.4-66.2-147.6-147.6-147.6ZM487.5,387.3c0,55.2-44.9,100.2-100.2,100.2h-239.7c-55.2,0-100.2-44.9-100.2-100.2v-239.7c0-55.2,44.9-100.2,100.2-100.2h239.7c55.2,0,100.2,44.9,100.2,100.2v239.7h0Z"/>
  <path class="cls-1" d="M267.5,129.6c-76,0-137.8,61.8-137.8,137.8s61.8,137.8,137.8,137.8,137.8-61.8,137.8-137.8-61.8-137.8-137.8-137.8ZM267.5,357.8c-49.8,0-90.4-40.5-90.4-90.4s40.5-90.4,90.4-90.4,90.4,40.5,90.4,90.4c0,49.8-40.5,90.4-90.4,90.4Z"/>
  <path class="cls-1" d="M411.1,89.4c-9.1,0-18.1,3.7-24.6,10.2-6.5,6.5-10.2,15.4-10.2,24.6s3.7,18.1,10.2,24.6c6.5,6.5,15.4,10.2,24.6,10.2s18.1-3.7,24.6-10.2c6.5-6.5,10.2-15.5,10.2-24.6s-3.7-18.2-10.2-24.6c-6.5-6.5-15.4-10.2-24.6-10.2Z"/>
</svg>